# xmcd CD database file
#
# Track frame offsets:
#	150
#	20278
#	35136
#	52785
#	68458
#	89197
#	104433
#	122385
#	145670
#	175235
#	196044
#	222588
#	253578
#
# Disc length: 3671 seconds
#
# Revision: 1
# Processed by: cddbd v1.5.2PL0 Copyright (c) Steve Scherf et al.
# Submitted via: CDex 1.70beta2
#
DISCID=b10e550d
DTITLE=ГЂ.ГЉГ®Г§Г«Г®ГўГ±ГЄГЁГ© ГЁ ГѓГ°Г Г±Г±Г¬ГҐГ©Г±ГІГҐГ° - Unknown CD for MusicBrainz and FreeDB
DYEAR=2005
DGENRE=Blues
TTITLE0=ГЏГ®ГҐГµГ Г«ГЁ Г„ГіГ­ГЄГҐГ«Гј!
TTITLE1=ГЏГ®Г«Г­Г»Г© ГўГЇГҐГ°ГҐГ¤!
TTITLE2=Г‚Г­ГЁГ§ ГЇГ® Г‡Г®Г«Г®ГІГіГµГҐ
TTITLE3=ГЌГ Г¬ ГµГўГ ГІГЁГІ!
TTITLE4=ГЏГ®Г«ГЄГ®ГўГ­ГЁГЄ Г°Г Г§ГўГҐГ¤ГЄГЁ
TTITLE5=Г‚Г®Г§ГјГ¬ГЁ Г±ГҐГЎГї Гў Г°ГіГЄГЁ
TTITLE6=ГЃГҐГ«Г»ГҐ Г®ГЎГ«Г ГЄГ 
TTITLE7=Г„ГҐГ°ГҐГўГїГ­Г­Г Гї ГЈГ®Г«Г®ГўГ 
TTITLE8=ГЉГ®Г«Г»ГЎГҐГ«ГјГ­Г Гї
TTITLE9=ГЋГ­Г  ГЎГ»Г«Г  Г¤Г®Г«ГјГёГҐ Г±Г® Г¬Г­Г®Г©
TTITLE10=ГЂГЄГіГ«Г 
TTITLE11=Г‡Г ГЄГ«ГЁГ­Г ГІГҐГ«Гј Г§Г¬ГҐГ©
TTITLE12=ГѓГ®Г°ГЁ, ГѓГ®Г°Г !
EXTD=YEAR: 2005
EXTT0=
EXTT1=
EXTT2=
EXTT3=
EXTT4=
EXTT5=
EXTT6=
EXTT7=
EXTT8=
EXTT9=
EXTT10=
EXTT11=
EXTT12=
PLAYORDER=
